<svg width="80" height="80" viewBox="0 0 80 80" fill="none" xmlns="http://www.w3.org/2000/svg">
<circle cx="40" cy="40" r="40" fill="url(#paint0_linear_401_2)"/>
<path d="M40 14C25.64 14 14 25.64 14 40C14 54.36 25.64 66 40 66C54.36 66 66 54.36 66 40C66 25.64 54.36 14 40 14ZM48.44 42.44C47.66 41.66 42.84 36.84 42.84 36.84C42.06 36.06 40.8 36.06 40 36.84L34.36 42.44C33.58 43.22 33.58 44.48 34.36 45.26L40 50.9L45.64 45.26C46.42 44.48 46.42 43.22 45.64 42.44L42.84 39.64L48.44 34.04C49.22 33.26 49.22 32 48.44 31.22C47.66 30.44 46.4 30.44 45.62 31.22L40 36.84L37.16 34.04L42.8 28.4C43.58 27.62 43.58 26.36 42.8 25.58C42.02 24.8 40.76 24.8 39.98 25.58L34.36 31.22C33.58 32 33.58 33.26 34.36 34.04L37.16 36.84L31.56 42.44C30.78 43.22 30.78 44.48 31.56 45.26C32.34 46.04 33.6 46.04 34.38 45.26L40 39.64L42.84 42.44L37.2 48.08C36.42 48.86 36.42 50.12 37.2 50.9C37.98 51.68 39.24 51.68 40.02 50.9L45.64 45.26L48.44 48.06C49.22 48.84 50.48 48.84 51.26 48.06C52.04 47.28 52.04 46.02 51.26 45.24L48.44 42.44Z" fill="white"/>
<defs>
<linearGradient id="paint0_linear_401_2" x1="40" y1="0" x2="40" y2="80" gradientUnits="userSpaceOnUse">
<stop stop-color="#25a29a"/>
<stop offset="1" stop-color="#38bdf8"/>
</linearGradient>
</defs>
</svg>
